<svg width="450" height="300" xmlns="http://www.w3.org/2000/svg" version="1.1">

 <g>
  <title>Layer 1</title>
  <g id="svg_1" enable-background="new">
   <path id="svg_4" fill-rule="evenodd" fill="#f97316" d="m337.2917,131.88047l16.5115,3.6476c-0.0598,5.038 -2.0903,8.6267 -4.3883,10.7989l-12.1232,-14.4465zm-84.2077,96.0613c-3.5337,-3.9798 -5.2813,-10.5307 -6.0245,-15.6081c-0.3776,-2.573 -0.5054,-5.1599 -0.5445,-7.7553l0.5989,-0.1868c6.5121,-2.0311 12.1935,-5.9225 16.0243,-11.5447l0.0054,-0.0071l0.0008,-0.0003c6.0146,-8.7661 7.0163,-22.9785 4.5318,-33.5092c-0.7901,-3.3468 -1.9735,-6.4068 -3.5482,-9.1825l0.0009,-0.0009c-1.5548,-2.7039 -3.4744,-4.7273 -5.7631,-6.0698c-2.2816,-1.3388 -4.9547,-2.0081 -8.0241,-2.0081c-4.2049,0 -7.8828,1.8284 -10.5695,4.9839c-0.4618,0.542 -0.9108,1.1356 -1.3442,1.7796l0.0006,0.0011l-0.0037,0.0051l-0.0068,0.0035c-2.3182,3.4222 -4.0626,7.9511 -5.2302,13.5875c-1.1778,5.6821 -1.7671,12.4886 -1.7671,20.4214c0,14.8921 -0.868,30.8157 4.5575,44.9288c3.9214,10.2144 12.9614,19.0217 24.3388,19.0222l0,-0.0031l0.0057,0c30.7945,0 38.2561,-44.7452 35.9082,-68.2038c-0.961,-9.5982 0.1105,-17.3997 4.3543,-26.0609c0.1366,0.9099 0.3231,1.7971 0.5521,2.6651c1.5001,5.648 4.7821,10.1021 9.0049,14.3498l0,0.023l0.0025,0.0028l0.0119,-0.0119c2.2213,2.234 4.7053,4.4014 7.3259,6.6872c4.2406,3.6998 14.1247,12.5595 9.1063,19.8511l-3.8322,5.5672c11.7323,5.8839 23.3235,10.8139 35.0564,16.6981l10.9516,-9.3924c6.9248,-5.9402 6.9287,-6.495 6.2652,-13.7148c-0.5188,-5.7212 -0.7994,-11.4735 -1.1486,-17.2069c-0.7969,-13.1088 -1.4086,-23.148 -3.2026,-31.5317c4.2698,-7.2443 3.9274,-10.2544 2.9815,-18.5142c-0.7915,-6.9376 -1.5273,-13.8836 -2.2839,-20.8248c9.4141,-4.6786 13.8549,-14.1743 18.6055,-23.0079c-10.628,0.6953 -24.6036,-3.1357 -33.3961,-0.6821l7.7927,-13.1439l-0.0099,-0.0031l-0.0465,-0.023c-40.377,-15.7867 -84.8271,-13.5595 -120.9657,6.8253c-3.147,1.7739 -6.5401,3.8466 -9.299,5.9802l0,63.5377c2.6597,-4.1879 6.5117,-8.0022 11.8051,-9.1493l0,-48.2403c30.5839,-18.6066 68.3816,-22.6029 103.7415,-11.6351c-4.5164,5.1245 -7.4001,14.5349 -8.7987,25.2564c12.0387,-12.5708 18.0598,-10.2237 31.7699,-9.7427c-2.111,2.9489 -10.1569,6.6745 -13.7441,7.6385c1.0429,9.569 2.9778,18.9993 4.0725,28.5517c0.6687,5.8445 0.8737,7.6303 -2.537,12.9915l-1.3583,2.1359l0.621,2.4525c1.9931,7.8752 1.6574,18.0805 2.4934,31.8195c0.29,4.7676 0.6052,9.9309 0.9536,14.8518l0.0014,0c0.0348,0.4987 0.1448,1.6912 0.2404,2.725c0.3792,4.1434 -4.2619,6.5483 -7.098,8.9813l-17.6664,-8.8603c0.5755,-3.708 0.3263,-8.1062 -0.8487,-12.3967c-2.3298,-8.5201 -6.54,-10.6353 -13.4316,-16.6479c-13.6276,-11.8882 -16.6734,-22.1757 -4.8311,-37.383l0.0238,0c0.2707,-0.3478 0.4773,-0.599 0.6239,-0.7611c0.0952,-0.1061 0.0643,-0.0924 0.0941,-0.1177l0.0232,-0.0229l0.0034,-0.0034l-6.0874,-9.9136c-20.8882,12.869 -31.6567,40.068 -29.6058,60.5537c1.521,15.2053 -1.162,50.8005 -20.7718,52.577c-0.5113,0.0462 -1.0372,0.0706 -1.5735,0.0711l0,0.0029l-0.0068,0c-3.6113,0 -6.7586,-1.8409 -9.0813,-4.4581zm-3.405,-40.8345c-1.1129,0.9046 -2.3944,1.5945 -3.8925,2.2366l0,-14.8006l-0.0034,0c0,-3.7616 1.0284,-18.2534 5.019,-17.6556c1.7081,0.2557 3.0265,3.047 3.6303,6.1078c1.0987,5.5661 1.0542,12.7528 -0.8158,18.1851c-0.7784,2.27 -2.0475,4.392 -3.9376,5.9267zm-25.7128,-98.799l-14.1667,8.86l0,136.4383l-0.0034,0c0,2.7918 0.3472,5.1173 1.0533,6.9553l0.0023,0c0.1335,0.3467 0.2818,0.6784 0.4408,0.9924l-0.0025,0.0015c0.1556,0.3055 0.3274,0.5969 0.5136,0.8744l0.0031,0l0.0051,0.0094l-0.002,0.0011c0.9632,1.4338 2.2686,2.5991 3.9257,3.4841c0.3087,0.1647 0.6503,0.3288 1.0216,0.4884l0,0.0034c0.1973,0.0853 0.4105,0.1726 0.6395,0.2585l10.9191,-10.5106c-0.5644,-0.3554 -1.065,-0.7404 -1.5061,-1.1514c-0.7069,-0.6602 -1.2619,-1.3887 -1.6738,-2.1807l-0.0063,-0.019c-0.2667,-0.5439 -0.4867,-1.1942 -0.6601,-1.9468c-0.0854,-0.3753 -0.1602,-0.7696 -0.222,-1.1801c-0.1854,-1.2299 -0.2806,-2.7127 -0.2812,-4.4467l-0.0034,0l0,-0.0261l0.0034,0l0,-136.9054zm-44.5618,24.6606l-14.1635,8.6045l0,124.1482c6.8286,0 13.5167,0.392 19.7588,-3.0246c3.6908,-2.0203 6.8735,-5.0624 9.5469,-9.1262l0,-0.0034c2.2626,-3.4228 4.0529,-7.6249 5.3716,-12.5988c0.2551,-0.9644 0.4947,-1.967 0.718,-3.0047c1.3686,-6.3613 2.0512,-13.8286 2.0517,-22.3912l-0.0034,0l0,-0.0184l0,-20.6138c0,-5.8763 -0.5351,-11.8041 -1.9683,-17.5145c-0.6665,-2.6495 -1.5563,-5.5757 -2.7715,-8.0243c-1.0389,-2.0905 -2.4179,-3.9665 -4.3614,-5.3045c-1.832,-1.2628 -3.9038,-2.0313 -6.1815,-2.0313l0,0.0031l-0.0085,0c-1.6636,0 -3.1187,0.3314 -4.3625,0.9922c-1.4097,0.7492 -2.465,1.6976 -3.6264,2.7623l0,-32.8546zm0,44.6672c0.5032,-0.3575 1.0001,-0.7002 1.5883,-0.9099l-0.0006,-0.0009c1.2283,-0.4374 2.679,-0.2656 3.78,0.43c0.6908,0.4354 1.2626,1.0775 1.7141,1.9264l0.0006,0c0.582,1.0588 1.0383,2.6898 1.366,4.887c0.5902,3.9869 0.6633,8.0739 0.6642,12.0957l0.0034,0l0,0.0385l0,33.7425l-0.0034,0c0,3.1028 -0.1948,5.7881 -0.5879,8.0558c-0.4023,2.323 -1.0143,4.2338 -1.8394,5.7328l-0.0003,-0.0006c-0.8873,1.6419 -2.1016,2.9203 -3.6374,3.8231c-0.9729,0.572 -1.9888,0.8958 -3.0476,1.2484l0,-71.0688zm-35.7746,79.2935l0.6701,1.495c1.6523,3.6936 3.4061,6.8499 7.397,8.2259l8.3719,-12.2704c-1.2487,-1.2628 -2.145,-2.842 -2.7236,-4.5122l-0.0008,0.0006l-0.0031,-0.0082l0.0008,-0.0006c-0.3761,-1.0423 -0.6539,-2.448 -0.8342,-4.2097c-0.178,-1.7408 -0.2653,-3.8265 -0.2653,-6.2493l0,-77.3317c-6.2822,0 -12.4688,-0.3115 -18.3481,2.4132c-3.4688,1.6072 -6.4942,4.0215 -9.0737,7.2465l0.0017,0.0017c-2.8336,3.5541 -5.0777,7.7757 -6.7303,12.6612l-0.0003,-0.0006c-0.324,0.9547 -0.6239,1.9341 -0.9003,2.9345c-1.7096,6.1857 -2.5656,13.3256 -2.5659,21.41l0.0034,0l0,0.0131l0,12.5334c0,10.0193 0.4722,18.3449 1.4181,24.9723c0.9372,6.5656 2.3352,11.4497 4.1939,14.6441l0,0.0037c1.1531,1.9973 2.4452,3.4875 3.875,4.4685c1.3938,0.9553 2.9316,1.4315 4.6128,1.4315c2.4108,0 4.8107,-1.4272 7.1974,-4.2891c1.444,-1.7317 2.5745,-3.6485 3.7035,-5.5834zm-2.7335,-76.426l1.2348,-0.6579l0,71.6062l-0.1845,0.5239c-0.3694,0.4626 -0.8238,0.8164 -1.364,1.0516c-0.5242,0.2279 -1.1197,0.345 -1.7859,0.345l0,-0.0028c-4.5476,0 -5.1656,-9.5318 -5.3767,-11.5367c-0.4164,-3.9408 -0.6237,-8.9609 -0.6237,-15.05l-0.0036,0l0,-19.1121c0,-7.0554 0.3268,-12.4285 0.9802,-16.12c0.1264,-0.7155 0.269,-1.3833 0.4291,-2.0018l0.0017,0c0.156,-0.6109 0.3286,-1.1597 0.514,-1.6422l0,-0.0036l0.0042,-0.0111l-0.0017,-0.0008c1.1971,-3.1292 3.1805,-5.7924 6.1761,-7.3877zm-32.1874,-34.1433l-3.2726,0c-5.7137,8.6428 -11.605,17.6916 -18.8875,25.1589l0,3.5521l8.0527,0l0,74.6223c0,6.3899 2.0798,13.2548 8.4421,16.0019c4.4538,1.9202 9.2333,1.2747 13.2361,-1.3371l0,-11.5538c-1.7155,0.8153 -3.6065,0.9508 -5.2327,-0.2066c-0.1466,-0.1049 -0.2963,-0.2251 -0.4465,-0.3603l-0.0034,0c-0.14,-0.125 -0.2795,-0.2633 -0.4147,-0.4121l0.0025,-0.0009l-0.0036,-0.0054l-0.0142,-0.0122c-0.4862,-0.5541 -0.8547,-1.2061 -1.099,-1.959l0,-0.0034c-0.2373,-0.7336 -0.3592,-1.5565 -0.3592,-2.4763l0,-72.2971l7.5708,0l0,-11.9251l-7.5708,0l0,-16.7859zm-46.9703,105.9933c-0.6613,-0.3035 -1.304,-0.6876 -1.9245,-1.1534l0.453,13.1103c5.1475,2.6708 11.3647,3.4594 16.6527,1.1361c7.2445,-3.1836 9.3334,-11.0653 9.6007,-18.3657c0.4649,-12.666 -4.779,-26.1666 -9.0009,-37.6546l-0.0051,-0.0141l-0.0005,0.0003c-1.8567,-4.9924 -3.625,-10.0384 -5.0338,-15.1654c-1.5205,-5.5293 -3.301,-14.0068 -0.3441,-19.2583c2.2133,-3.9311 6.7169,-5.1477 9.9053,-3.7519l9.1786,-11.1714c-6.95,-2.6447 -14.4501,-3.6533 -21.0997,-0.6018c-6.3019,2.8919 -10.3047,8.3903 -11.6951,14.7113c-1.7501,7.9619 -0.4459,16.3939 1.6018,24.2881c1.4426,5.5562 3.5442,12.0208 6.3003,19.3983l0.0014,-0.0003c2.3261,6.1591 4.0961,11.4097 5.3093,15.7564c1.2189,4.3653 1.8706,7.812 1.9588,10.3481c0.1284,3.7114 -1.2034,7.1691 -4.6917,8.6157c-2.2229,0.9207 -4.9379,0.7982 -7.1665,-0.2277"/>
   <path id="svg_5" fill="#f97316" d="m121.8124,97.48797l1.5193,0l0,5.5865l2.5189,0l0,4.5298l-2.5189,0l0,23.7804c0,0.5564 0.1415,0.9808 0.4153,1.2923c0.2733,0.3022 0.6038,0.4533 0.972,0.4533c0.33,0 0.707,-0.1418 1.1316,-0.4153l0,4.4728c-0.9246,0.6327 -1.84,0.9439 -2.764,0.9439c-1.5007,0 -2.708,-0.519 -3.6239,-1.5664c-0.9243,-1.0383 -1.387,-2.5101 -1.387,-4.4067l0,-24.5543l-2.6798,0l0,-1.5758c1.5661,-1.5851 3.7085,-4.4345 6.4165,-8.5405zm6.3221,-4.7741l5.2747,0l0,12.0504c0.6134,-0.8119 1.1605,-1.3595 1.6415,-1.6325c0.4907,-0.2744 1.1047,-0.4153 1.8403,-0.4153c1.2359,0 2.264,0.5091 3.075,1.5188c0.8119,1.0196 1.2181,2.6714 1.2181,4.9734l0,28.565l-5.256,0l0,-28.226c0,-0.5564 -0.1131,-0.9615 -0.3495,-1.2353c-0.226,-0.2648 -0.4995,-0.3966 -0.8113,-0.3966c-0.4247,0 -0.8771,0.3583 -1.3581,1.0755l0,28.7824l-5.2747,0l0,-45.0598zm28.0995,44.89c-0.8305,0.3484 -1.7829,0.5278 -2.8496,0.5278c-2.6513,0 -4.9629,-1.2926 -6.9353,-3.869c-1.972,-2.5849 -2.9627,-7.1526 -2.9627,-13.7114l0,-3.9822c0,-5.3126 0.7928,-9.1346 2.3779,-11.4749c1.0656,-1.5854 2.4716,-2.3777 4.1993,-2.3777c2.1424,0 3.7451,0.9434 4.8305,2.8304c1.0755,1.8964 1.6138,4.1718 1.6138,6.8423c0,3.2079 -0.6511,5.7656 -1.9534,7.662c-1.2929,1.8967 -3.1229,3.2182 -5.4825,3.9541c0.0377,2.8871 0.6517,5.1429 1.8502,6.7376c0.8677,1.1424 1.8958,1.7176 3.0759,1.7176c0.5286,0 1.2739,-0.2268 2.2359,-0.6886l0,5.832zm-6.0576,-29.4143c-0.4813,0.7362 -0.792,1.378 -0.9346,1.9338c-0.2732,1.0474 -0.4147,2.2754 -0.4147,3.6814l0,4.5006c0.792,-0.349 1.4063,-0.9621 1.8301,-1.8213c0.4351,-0.8677 0.6514,-2.1886 0.6514,-3.9532c0,-1.9349 -0.377,-3.3789 -1.1322,-4.3413"/>
   <!-- Bulgarian Adventures text -->
   <text id="svg_text" x="158" y="265" font-family="Arial, sans-serif" font-size="16" font-weight="300" letter-spacing="2px" fill="#f97316" text-anchor="middle">Bulgarian Adventures</text>
   <clipPath transform="translate(-1 0)" id="cp0">
    <path id="svg_20" fill-rule="evenodd" d="m182.594,479.63307l7.4382,1.6433c-0.0273,2.2694 -0.9417,3.886 -1.9766,4.8642l-5.4616,-6.5075zm-37.9318,43.2714c-1.5916,-1.7929 -2.3788,-4.7435 -2.7139,-7.0304c-0.17,-1.1594 -0.2273,-2.3245 -0.2452,-3.4937l0.2699,-0.0842c2.9336,-0.9148 5.493,-2.6677 7.2179,-5.2005l0.0028,-0.0031l0.0003,0c2.7093,-3.9487 3.1606,-10.3513 2.0412,-15.0945c-0.3557,-1.5074 -0.8886,-2.8859 -1.5982,-4.1363l0.0006,-0.0003c-0.7004,-1.2183 -1.5653,-2.1294 -2.596,-2.7343c-1.0278,-0.6029 -2.232,-0.9045 -3.615,-0.9045c-1.8935,0 -3.5504,0.8232 -4.7605,2.2447c-0.2083,0.2444 -0.4102,0.5117 -0.6058,0.802l0.0006,0.0002l-0.002,0.0026l-0.0031,0.0014c-1.044,1.5415 -1.83,3.5813 -2.3559,6.1206c-0.5306,2.5597 -0.7959,5.6256 -0.7959,9.1993c0,6.7081 -0.3909,13.8812 2.0531,20.2382c1.7663,4.6015 5.838,8.5686 10.9633,8.5688l0,-0.0017l0.0025,0c13.8717,0 17.2327,-20.1554 16.1751,-30.7227c-0.4329,-4.3234 0.0502,-7.8375 1.9616,-11.7391c0.0615,0.4099 0.1454,0.8093 0.2491,1.2007c0.6752,2.5439 2.1535,4.5499 4.0561,6.4636l0,0.0105l0.0012,0.0014l0.0051,-0.0059c1.0009,1.0065 2.1197,1.9828 3.3003,3.0123c1.91,1.6668 6.3621,5.658 4.102,8.9419l-1.7268,2.5081c5.2855,2.6507 10.5066,4.8716 15.7918,7.522l4.9331,-4.231c3.1193,-2.6759 3.1213,-2.9259 2.8222,-6.1778c-0.2336,-2.5772 -0.36,-5.1681 -0.517,-7.7513c-0.3592,-5.9049 -0.6347,-10.427 -1.4429,-14.2036c1.9233,-3.2635 1.7688,-4.619 1.3428,-8.3398c-0.3563,-3.1252 -0.688,-6.2535 -1.0287,-9.3807c4.2406,-2.1073 6.241,-6.3847 8.3806,-10.3643c-4.7868,0.3138 -11.0823,-1.4125 -15.0431,-0.307l3.5101,-5.9207l-0.0043,-0.0014l-0.0209,-0.0105c-18.1885,-7.111 -38.2111,-6.1076 -54.4901,3.0744c-1.4174,0.7994 -2.9458,1.7331 -4.1888,2.6938l0,28.6214c1.1982,-1.887 2.9336,-3.6051 5.3178,-4.1213l0,-21.7304c13.7769,-8.3815 30.8032,-10.1815 46.7311,-5.2412c-2.0344,2.3085 -3.333,6.5474 -3.9634,11.3771c5.4233,-5.6628 8.1352,-4.6054 14.311,-4.3889c-0.951,1.3283 -4.5751,3.007 -6.1909,3.4407c0.4697,4.3109 1.3411,8.5587 1.8341,12.8616c0.3016,2.6326 0.3937,3.4368 -1.1424,5.8522l-0.612,0.9618l0.2795,1.1049c0.8983,3.5473 0.7469,8.1448 1.1234,14.3331c0.1306,2.1478 0.2727,4.4739 0.4297,6.6903l0.0003,0c0.0158,0.2251 0.0652,0.762 0.1083,1.2275c0.1712,1.8666 -1.9199,2.9497 -3.197,4.0461l-7.9585,-3.9914c0.2596,-1.6702 0.1474,-3.6516 -0.3818,-5.5846c-1.05,-3.8378 -2.9461,-4.7905 -6.0503,-7.4987c-6.139,-5.3555 -7.5112,-9.9893 -2.1762,-16.8395l0.0102,0c0.1222,-0.1571 0.2155,-0.2699 0.2815,-0.3428c0.0431,-0.0479 0.0289,-0.0422 0.0423,-0.053l0.0102,-0.0104l0.002,-0.0015l-2.7426,-4.466c-9.409,5.7972 -14.2597,18.0494 -13.3361,27.277c0.6854,6.8493 -0.523,22.8835 -9.3569,23.6837c-0.2305,0.0207 -0.4672,0.0315 -0.7084,0.0321l0,0.0014l-0.0034,0c-1.6268,0 -3.0441,-0.8294 -4.0907,-2.0084zm-1.5338,-18.394c-0.5012,0.4077 -1.0789,0.7183 -1.7532,1.0072l0,-6.6665l-0.0017,0c0,-1.6946 0.4632,-8.2228 2.2606,-7.9538c0.7699,0.1154 1.3635,1.3731 1.6353,2.7519c0.4952,2.507 0.4754,5.7444 -0.3674,8.1916c-0.3506,1.0224 -0.9218,1.9783 -1.7736,2.6696zm-11.5826,-44.5048l-6.3814,3.9912l0,61.4594l-0.0017,0c0,1.2577 0.1562,2.3051 0.4748,3.1331l0.0009,0c0.0603,0.1565 0.127,0.3053 0.1984,0.4471l-0.0009,0.0008c0.0701,0.1375 0.1472,0.2687 0.2311,0.394l0.0017,0l0.0019,0.004l-0.0008,0.0006c0.434,0.646 1.0219,1.1707 1.7682,1.5695c0.1395,0.074 0.2934,0.1482 0.4607,0.22l0,0.0014c0.0887,0.0382 0.1848,0.0779 0.288,0.1165l4.9184,-4.7347c-0.2543,-0.1602 -0.4797,-0.3334 -0.6784,-0.5185c-0.3186,-0.2976 -0.5683,-0.6253 -0.7543,-0.9828l-0.0025,-0.0082c-0.1202,-0.2452 -0.2191,-0.538 -0.2974,-0.8773c-0.0385,-0.1687 -0.072,-0.3464 -0.1003,-0.5312c-0.0831,-0.5542 -0.1262,-1.2223 -0.1264,-2.0033l-0.0015,0l0,-0.0113l0.0015,0l0,-61.6703zm-20.0733,11.1085l-6.3799,3.8758l0,55.9236c3.0761,0 6.0885,0.1768 8.9002,-1.3621c1.6631,-0.9105 3.0968,-2.2808 4.301,-4.1114l0,-0.0014c1.0188,-1.5417 1.8252,-3.4344 2.4191,-5.6749c0.1154,-0.4346 0.2231,-0.8864 0.324,-1.3536c0.6162,-2.8658 0.9235,-6.2294 0.9241,-10.0865l-0.0014,0l0,-0.0082l0,-9.2855c0,-2.647 -0.241,-5.3172 -0.8867,-7.8896c-0.3002,-1.1934 -0.7013,-2.5121 -1.249,-3.6145c-0.4674,-0.9417 -1.089,-1.7867 -1.9641,-2.3899c-0.8254,-0.5686 -1.7586,-0.9147 -2.7845,-0.9147l0,0.0014l-0.0042,0c-0.7489,0 -1.4049,0.1494 -1.965,0.447c-0.635,0.3376 -1.1106,0.7642 -1.6336,1.2444l0,-14.7999zm0,20.1208c0.2271,-0.1615 0.4507,-0.3155 0.7155,-0.4096l0,-0.0005c0.553,-0.1973 1.2064,-0.1197 1.7025,0.1933c0.3112,0.1964 0.5689,0.4856 0.7721,0.8682l0.0006,0c0.2619,0.4765 0.4674,1.2116 0.6148,2.2011c0.2662,1.7958 0.2988,3.6369 0.2994,5.4485l0.0017,0l0,0.0173l0,15.1997l-0.0017,0c0,1.3974 -0.0879,2.6073 -0.2648,3.6292c-0.1809,1.0462 -0.4567,1.9068 -0.8286,2.582l-0.0003,-0.0005c-0.3994,0.7398 -0.9464,1.3158 -1.6384,1.7226c-0.4382,0.2576 -0.8957,0.4033 -1.3728,0.5618l0,-32.0131zm-16.115,35.7183l0.3019,0.6735c0.7441,1.6639 1.5347,3.0852 3.3319,3.7054l3.7715,-5.5272c-0.5624,-0.569 -0.9661,-1.2807 -1.2269,-2.0325l-0.0005,0.0003l-0.0014,-0.004l0.0005,0c-0.1695,-0.4697 -0.2942,-1.1026 -0.3756,-1.8963c-0.0808,-0.7844 -0.1196,-1.7235 -0.1196,-2.8151l0,-34.8347c-2.8301,0 -5.6168,-0.1403 -8.2653,1.0871c-1.5624,0.7239 -2.925,1.8113 -4.0869,3.2644l0.0008,0.0002c-1.277,1.6013 -2.2876,3.5028 -3.0322,5.7036c-0.146,0.4298 -0.2812,0.8714 -0.4054,1.3215c-0.7701,2.7865 -1.1559,6.0027 -1.1559,9.6444l0.0014,0l0,0.0059l0,5.6458c0,4.513 0.2129,8.2635 0.6389,11.2487c0.4221,2.9579 1.0519,5.1576 1.889,6.5968l0,0.0017c0.5196,0.9 1.1016,1.5709 1.7456,2.0129c0.6279,0.4303 1.3204,0.6448 2.0778,0.6448c1.0862,0 2.1671,-0.6429 3.2423,-1.9323c0.6505,-0.7798 1.1599,-1.6433 1.6681,-2.5149zm-1.2313,-34.4268l0.5561,-0.2959l0,32.2554l-0.083,0.2358c-0.1661,0.2087 -0.3708,0.3677 -0.614,0.4737c-0.2361,0.1026 -0.5046,0.1556 -0.8048,0.1556l0,-0.0014c-2.048,0 -2.3269,-4.2933 -2.4219,-5.1967c-0.1876,-1.7754 -0.2812,-4.0366 -0.2812,-6.7794l-0.0011,0l0,-8.6094c0,-3.1779 0.1471,-5.5984 0.4411,-7.2615c0.0572,-0.322 0.1213,-0.6228 0.1936,-0.9014l0.0005,0c0.0703,-0.2755 0.1477,-0.5224 0.2313,-0.7398l0,-0.0017l0.002,-0.0051l-0.0005,-0.0003c0.5394,-1.4097 1.4326,-2.6093 2.7819,-3.3279zm-14.499,-15.3799l-1.474,0c-2.5741,3.8931 -5.2276,7.9693 -8.5079,11.3329l0,1.6004l3.627,0l0,33.6141c0,2.8783 0.9371,5.9706 3.8032,7.2079c2.0061,0.8652 4.1587,0.5743 5.9624,-0.6023l0,-5.2044c-0.773,0.3673 -1.6251,0.4283 -2.3576,-0.093c-0.0657,-0.0474 -0.1335,-0.1018 -0.201,-0.1627l-0.0014,0c-0.0632,-0.0559 -0.1264,-0.1182 -0.1868,-0.1851l0.0009,-0.0003l-0.0017,-0.0028l-0.006,-0.0054c-0.2191,-0.2498 -0.3852,-0.5437 -0.4952,-0.8825l0,-0.0017c-0.1071,-0.3302 -0.1619,-0.7012 -0.1619,-1.1151l0,-32.5667l3.4107,0l0,-5.3722l-3.4107,0l0,-7.5611zm-21.1583,47.7456c-0.2974,-0.1366 -0.5871,-0.3098 -0.8669,-0.5199l0.2041,5.906c2.3188,1.203 5.1194,1.5579 7.5011,0.5114c3.2638,-1.4338 4.2049,-4.9845 4.3248,-8.2727c0.2098,-5.7052 -2.1523,-11.787 -4.0541,-16.9619l-0.0023,-0.0062l-0.0005,0c-0.8363,-2.249 -1.6328,-4.5222 -2.2672,-6.8315c-0.6851,-2.4903 -1.4873,-6.3094 -0.1553,-8.6749c0.9972,-1.7708 3.0257,-2.3187 4.462,-1.6903l4.1346,-5.0321c-3.1303,-1.1911 -6.5092,-1.6458 -9.5043,-0.271c-2.8389,1.3023 -4.642,3.7792 -5.2685,6.6269c-0.7883,3.5864 -0.2007,7.3848 0.7215,10.9406c0.6499,2.5027 1.5967,5.4147 2.8383,8.7381l0.0006,0c1.0476,2.7745 1.845,5.1395 2.3915,7.0973c0.5494,1.9664 0.8428,3.519 0.8822,4.6616c0.0578,1.6716 -0.542,3.2292 -2.113,3.8815c-1.0014,0.4141 -2.2246,0.3591 -3.2286,-0.1029"/>
   </clipPath>
   <clipPath transform="translate(-1 0)" id="cp1">
    <path id="svg_38" fill-rule="evenodd" d="m603.5384,479.63307l7.4381,1.6433c-0.0272,2.2694 -0.9417,3.886 -1.9766,4.8642l-5.4615,-6.5075zm-37.9318,43.2714c-1.5917,-1.7929 -2.3789,-4.7435 -2.7139,-7.0304c-0.1701,-1.1594 -0.2274,-2.3245 -0.2452,-3.4937l0.2698,-0.0842c2.9336,-0.9148 5.493,-2.6677 7.2179,-5.2005l0.0028,-0.0031l0.0003,0c2.7094,-3.9487 3.1606,-10.3513 2.0412,-15.0945c-0.3557,-1.5074 -0.8886,-2.8859 -1.5981,-4.1363l0.0005,-0.0003c-0.7004,-1.2183 -1.5653,-2.1294 -2.5959,-2.7343c-1.0279,-0.6029 -2.232,-0.9045 -3.6151,-0.9045c-1.8935,0 -3.5504,0.8232 -4.7605,2.2447c-0.2083,0.2444 -0.4101,0.5117 -0.6057,0.802l0.0005,0.0002l-0.002,0.0026l-0.0031,0.0014c-1.044,1.5415 -1.83,3.5813 -2.3558,6.1206c-0.5307,2.5597 -0.796,5.6256 -0.796,9.1993c0,6.7081 -0.3909,13.8812 2.0531,20.2382c1.7663,4.6015 5.838,8.5686 10.9633,8.5688l0,-0.0017l0.0025,0c13.8717,0 17.2327,-20.1554 16.1751,-30.7227c-0.4329,-4.3234 0.0502,-7.8375 1.9616,-11.7391c0.0615,0.4099 0.1454,0.8093 0.2491,1.2007c0.6753,2.5439 2.1535,4.5499 4.0561,6.4636l0,0.0105l0.0012,0.0014l0.0051,-0.0059c1.0009,1.0065 2.1197,1.9828 3.3003,3.0123c1.91,1.6668 6.3621,5.658 4.1021,8.9419l-1.7269,2.5081c5.2855,2.6507 10.5066,4.8716 15.7918,7.522l4.9331,-4.231c3.1193,-2.6759 3.1213,-2.9259 2.8222,-6.1778c-0.2336,-2.5772 -0.36,-5.1681 -0.517,-7.7513c-0.3592,-5.9049 -0.6347,-10.427 -1.4429,-14.2036c1.9233,-3.2635 1.7689,-4.619 1.3428,-8.3398c-0.3563,-3.1252 -0.688,-6.2535 -1.0287,-9.3807c4.2407,-2.1073 6.2411,-6.3847 8.3807,-10.3643c-4.7869,0.3138 -11.0824,-1.4125 -15.0432,-0.307l3.5101,-5.9207l-0.0042,-0.0014l-0.021,-0.0105c-18.1885,-7.111 -38.211,-6.1076 -54.4901,3.0744c-1.4174,0.7994 -2.9458,1.7331 -4.1888,2.6938l0,28.6214c1.1982,-1.887 2.9336,-3.6051 5.3178,-4.1213l0,-21.7304c13.777,-8.3815 30.8033,-10.1815 46.7311,-5.2412c-2.0344,2.3085 -3.3329,6.5474 -3.9634,11.3771c5.4233,-5.6628 8.1352,-4.6054 14.311,-4.3889c-0.951,1.3283 -4.5751,3.007 -6.1908,3.4407c0.4697,4.3109 1.341,8.5587 1.834,12.8616c0.3016,2.6326 0.3937,3.4368 -1.1424,5.8522l-0.612,0.9618l0.2795,1.1049c0.8983,3.5473 0.7469,8.1448 1.1234,14.3331c0.1307,2.1478 0.2727,4.4739 0.4297,6.6903l0.0003,0c0.0159,0.2251 0.0652,0.762 0.1083,1.2275c0.1712,1.8666 -1.9199,2.9497 -3.1969,4.0461l-7.9586,-3.9914c0.2597,-1.6702 0.1474,-3.6516 -0.3818,-5.5846c-1.05,-3.8378 -2.9461,-4.7905 -6.0503,-7.4987c-6.139,-5.3555 -7.5112,-9.9893 -2.1761,-16.8395l0.0102,0c0.1221,-0.1571 0.2154,-0.2699 0.2814,-0.3428c0.0431,-0.0479 0.029,-0.0422 0.0423,-0.053l0.0102,-0.0104l0.002,-0.0015l-2.7426,-4.466c-9.409,5.7972 -14.2596,18.0494 -13.3361,27.277c0.6854,6.8493 -0.523,22.8835 -9.3569,23.6837c-0.2304,0.0207 -0.4671,0.0315 -0.7084,0.0321l0,0.0014l-0.0034,0c-1.6268,0 -3.0441,-0.8294 -4.0906,-2.0084zm-1.5339,-18.394c-0.5011,0.4077 -1.0788,0.7183 -1.7532,1.0072l0,-6.6665l-0.0017,0c0,-1.6946 0.4632,-8.2228 2.2606,-7.9538c0.7699,0.1154 1.3635,1.3731 1.6353,2.7519c0.4952,2.507 0.4754,5.7444 -0.3673,8.1916c-0.3507,1.0224 -0.9219,1.9783 -1.7737,2.6696zm-11.5826,-44.5048l-6.3814,3.9912l0,61.4594l-0.0017,0c0,1.2577 0.1562,2.3051 0.4748,3.1331l0.0009,0c0.0604,0.1565 0.127,0.3053 0.1984,0.4471l-0.0008,0.0008c0.07,0.1375 0.1471,0.2687 0.231,0.394l0.0017,0l0.002,0.004l-0.0009,0.0006c0.434,0.646 1.0219,1.1707 1.7683,1.5695c0.1394,0.074 0.2933,0.1482 0.4606,0.22l0,0.0014c0.0887,0.0382 0.1848,0.0779 0.288,0.1165l4.9184,-4.7347c-0.2543,-0.1602 -0.4796,-0.3334 -0.6783,-0.5185c-0.3187,-0.2976 -0.5684,-0.6253 -0.7543,-0.9828l-0.0026,-0.0082c-0.1202,-0.2452 -0.2191,-0.538 -0.2973,-0.8773c-0.0386,-0.1687 -0.072,-0.3464 -0.1004,-0.5312c-0.0831,-0.5542 -0.1261,-1.2223 -0.1264,-2.0033l-0.0014,0l0,-0.0113l0.0014,0l0,-61.6703zm-20.0733,11.1085l-6.3799,3.8758l0,55.9236c3.0761,0 6.0885,0.1768 8.9002,-1.3621c1.6631,-0.9105 3.0969,-2.2808 4.301,-4.1114l0,-0.0014c1.0188,-1.5417 1.8252,-3.4344 2.4191,-5.6749c0.1154,-0.4346 0.2231,-0.8864 0.324,-1.3536c0.6162,-2.8658 0.9235,-6.2294 0.9241,-10.0865l-0.0014,0l0,-0.0082l0,-9.2855c0,-2.647 -0.241,-5.3172 -0.8867,-7.8896c-0.3002,-1.1934 -0.7013,-2.5121 -1.2489,-3.6145c-0.4675,-0.9417 -1.0891,-1.7867 -1.9642,-2.3899c-0.8254,-0.5686 -1.7586,-0.9147 -2.7844,-0.9147l0,0.0014l-0.0043,0c-0.7489,0 -1.4048,0.1494 -1.965,0.447c-0.6349,0.3376 -1.1106,0.7642 -1.6336,1.2444l0,-14.7999zm0,20.1208c0.2271,-0.1615 0.4507,-0.3155 0.7155,-0.4096l0,-0.0005c0.553,-0.1973 1.2064,-0.1197 1.7025,0.1933c0.3112,0.1964 0.5689,0.4856 0.7721,0.8682l0.0006,0c0.2619,0.4765 0.4674,1.2116 0.6148,2.2011c0.2662,1.7958 0.2988,3.6369 0.2994,5.4485l0.0017,0l0,0.0173l0,15.1997l-0.0017,0c0,1.3974 -0.0879,2.6073 -0.2648,3.6292c-0.1808,1.0462 -0.4566,1.9068 -0.8286,2.582l-0.0002,-0.0005c-0.3994,0.7398 -0.9465,1.3158 -1.6385,1.7226c-0.4382,0.2576 -0.8957,0.4033 -1.3728,0.5618l0,-32.0131zm-16.1149,35.7183l0.3018,0.6735c0.7441,1.6639 1.5347,3.0852 3.3319,3.7054l3.7715,-5.5272c-0.5624,-0.569 -0.9661,-1.2807 -1.2268,-2.0325l-0.0006,0.0003l-0.0014,-0.004l0.0005,0c-0.1695,-0.4697 -0.2942,-1.1026 -0.3756,-1.8963c-0.0807,-0.7844 -0.1196,-1.7235 -0.1196,-2.8151l0,-34.8347c-2.8301,0 -5.6168,-0.1403 -8.2652,1.0871c-1.5625,0.7239 -2.9251,1.8113 -4.087,3.2644l0.0008,0.0002c-1.277,1.6013 -2.2875,3.5028 -3.0322,5.7036c-0.146,0.4298 -0.2812,0.8714 -0.4054,1.3215c-0.7701,2.7865 -1.1559,6.0027 -1.1559,9.6444l0.0014,0l0,0.0059l0,5.6458c0,4.513 0.2129,8.2635 0.6389,11.2487c0.4221,2.9579 1.052,5.1576 1.889,6.5968l0,0.0017c0.5196,0.9 1.1016,1.5709 1.7456,2.0129c0.6279,0.4303 1.3204,0.6448 2.0778,0.6448c1.0862,0 2.1671,-0.6429 3.2423,-1.9323c0.6505,-0.7798 1.1599,-1.6433 1.6682,-2.5149zm-1.2314,-34.4268l0.5561,-0.2959l0,32.2554l-0.083,0.2358c-0.1661,0.2087 -0.3708,0.3677 -0.614,0.4737c-0.2361,0.1026 -0.5046,0.1556 -0.8047,0.1556l0,-0.0014c-2.0481,0 -2.327,-4.2933 -2.422,-5.1967c-0.1876,-1.7754 -0.2812,-4.0366 -0.2812,-6.7794l-0.0011,0l0,-8.6094c0,-3.1779 0.1471,-5.5984 0.4411,-7.2615c0.0572,-0.322 0.1213,-0.6228 0.1936,-0.9014l0.0005,0c0.0703,-0.2755 0.1477,-0.5224 0.2313,-0.7398l0,-0.0017l0.002,-0.0051l-0.0005,-0.0003c0.5394,-1.4097 1.4326,-2.6093 2.7819,-3.3279zm-14.4989,-15.3799l-1.4741,0c-2.5741,3.8931 -5.2276,7.9693 -8.5079,11.3329l0,1.6004l3.627,0l0,33.6141c0,2.8783 0.9371,5.9706 3.8032,7.2079c2.0061,0.8652 4.1587,0.5743 5.9624,-0.6023l0,-5.2044c-0.773,0.3673 -1.6251,0.4283 -2.3576,-0.093c-0.0657,-0.0474 -0.1335,-0.1018 -0.2009,-0.1627l-0.0015,0c-0.0632,-0.0559 -0.1264,-0.1182 -0.1868,-0.1851l0.0009,-0.0003l-0.0017,-0.0028l-0.006,-0.0054c-0.2191,-0.2498 -0.3852,-0.5437 -0.4952,-0.8825l0,-0.0017c-0.1071,-0.3302 -0.1618,-0.7012 -0.1618,-1.1151l0,-32.5667l3.4106,0l0,-5.3722l-3.4106,0l0,-7.5611zm-21.1584,47.7456c-0.2974,-0.1366 -0.5871,-0.3098 -0.8668,-0.5199l0.2041,5.906c2.3187,1.203 5.1193,1.5579 7.501,0.5114c3.2638,-1.4338 4.2049,-4.9845 4.3248,-8.2727c0.2098,-5.7052 -2.1523,-11.787 -4.0541,-16.9619l-0.0023,-0.0062l-0.0005,0c-0.8363,-2.249 -1.6328,-4.5222 -2.2672,-6.8315c-0.6851,-2.4903 -1.4873,-6.3094 -0.1553,-8.6749c0.9972,-1.7708 3.0257,-2.3187 4.462,-1.6903l4.1346,-5.0321c-3.1303,-1.1911 -6.5092,-1.6458 -9.5043,-0.271c-2.8389,1.3023 -4.642,3.7792 -5.2684,6.6269c-0.7884,3.5864 -0.2007,7.3848 0.7214,10.9406c0.65,2.5027 1.5967,5.4147 2.8383,8.7381l0.0006,0c1.0477,2.7745 1.845,5.1395 2.3916,7.0973c0.5493,1.9664 0.8427,3.519 0.8821,4.6616c0.0578,1.6716 -0.542,3.2292 -2.1129,3.8815c-1.0015,0.4141 -2.2247,0.3591 -3.2287,-0.1029"/>
   </clipPath>
   <clipPath transform="translate(-1 0)" id="cp2">
    <path id="svg_56" fill-rule="evenodd" d="m182.594,346.30467l7.4376,1.6432c-0.0267,2.2695 -0.9408,3.8863 -1.9763,4.8643l-5.4613,-6.5075zm-37.9315,43.2714c-1.5919,-1.7929 -2.3788,-4.7437 -2.7142,-7.0307c-0.1697,-1.1588 -0.2276,-2.3244 -0.2452,-3.4935l0.2696,-0.0841c2.9336,-0.9151 5.4927,-2.6677 7.2187,-5.2005l0.0023,-0.0031c2.7102,-3.9487 3.1609,-10.3504 2.0412,-15.0948c-0.3557,-1.5074 -0.8886,-2.8856 -1.5981,-4.136l0.0008,0c-0.7007,-1.2186 -1.5653,-2.1297 -2.5957,-2.7343c-1.0281,-0.6035 -2.2323,-0.9048 -3.615,-0.9048c-1.8938,0 -3.5507,0.8234 -4.7608,2.2453c-0.2081,0.2438 -0.4102,0.5111 -0.6058,0.8016l0.0003,0l-0.0017,0.0023l-0.0028,0.0017c-1.0443,1.5418 -1.8301,3.5819 -2.3562,6.1206c-0.5306,2.5597 -0.7959,5.6256 -0.7959,9.199c0,6.7082 -0.3912,13.8809 2.0525,20.2385c1.7663,4.6012 5.8391,8.5686 10.9636,8.5686l0,-0.0015l0.0028,0c13.8714,0 17.233,-20.1551 16.1748,-30.7224c-0.4326,-4.3237 0.0502,-7.8378 1.9616,-11.7394c0.0618,0.4099 0.146,0.8096 0.2494,1.2004c0.6758,2.5439 2.1535,4.5508 4.0558,6.4636l0,0.0108l0.0015,0.0008l0.0048,-0.0051c1.0009,1.006 2.12,1.9826 3.3003,3.0121c1.9103,1.6668 6.363,5.6577 4.1021,8.9422l-1.7266,2.5078c5.2855,2.6504 10.5063,4.8711 15.7921,7.5215l4.9328,-4.2305c3.1193,-2.6762 3.121,-2.9259 2.8225,-6.1781c-0.2339,-2.5772 -0.3606,-5.1678 -0.5171,-7.7508c-0.3597,-5.9045 -0.6349,-10.428 -1.4428,-14.2038c1.9228,-3.2635 1.7685,-4.619 1.3431,-8.3398c-0.3575,-3.1249 -0.6883,-6.2541 -1.029,-9.3807c4.2406,-2.107 6.2402,-6.3848 8.3809,-10.3637c-4.7874,0.3132 -11.0832,-1.4126 -15.044,-0.307l3.5104,-5.921l-0.004,-0.0017l-0.0212,-0.0103c-18.1883,-7.1109 -38.2113,-6.1078 -54.4901,3.0742c-1.4179,0.7997 -2.9458,1.7334 -4.1888,2.6938l0,28.6211c1.1979,-1.8864 2.9333,-3.6045 5.3169,-4.1207l0,-21.7304c13.7776,-8.3815 30.8044,-10.1818 46.7317,-5.2415c-2.0338,2.3088 -3.3329,6.5474 -3.9625,11.3768c5.4224,-5.6625 8.1343,-4.6049 14.3104,-4.3883c-0.9507,1.3283 -4.5751,3.0061 -6.1914,3.4407c0.47,4.3101 1.3416,8.5583 1.8348,12.8613c0.3011,2.6326 0.3941,3.4373 -1.1429,5.8522l-0.612,0.962l0.2798,1.1047c0.898,3.5478 0.7469,8.1445 1.1234,14.3331c0.1304,2.1478 0.2724,4.4736 0.4294,6.6901l0.0006,0c0.0158,0.225 0.0655,0.7619 0.1083,1.2279c0.1709,1.8664 -1.9197,2.9495 -3.1972,4.0451l-7.958,-3.9909c0.2593,-1.6702 0.1468,-3.6516 -0.3821,-5.5843c-1.0497,-3.8375 -2.9466,-4.79 -6.0506,-7.499c-6.1387,-5.355 -7.5107,-9.989 -2.1761,-16.8387l0.0104,0c0.1219,-0.1567 0.2158,-0.2704 0.2815,-0.3435c0.0425,-0.0477 0.0284,-0.0414 0.042,-0.0531l0.0105,-0.0102l0.0014,-0.0011l-2.7411,-4.4657c-9.4102,5.7966 -14.2606,18.0485 -13.3367,27.2761c0.6848,6.8496 -0.5233,22.8835 -9.3572,23.6837c-0.2307,0.021 -0.4674,0.0318 -0.709,0.0321l0,0.0017l-0.0028,0c-1.6265,0 -3.0441,-0.8292 -4.0904,-2.0084zm-1.5341,-18.394c-0.5012,0.4071 -1.0789,0.7183 -1.7535,1.0072l0,-6.6666l-0.0014,0c0,-1.6945 0.4634,-8.2233 2.2606,-7.9534c0.7693,0.1151 1.3635,1.3725 1.6353,2.7513c0.4952,2.5073 0.4751,5.7447 -0.3674,8.1919c-0.3512,1.0224 -0.9221,1.9777 -1.7736,2.6696zm-11.5829,-44.5045l-6.3814,3.9909l0,61.4594l-0.0017,0c0,1.2577 0.1571,2.3054 0.4748,3.1331l0.0014,0c0.0599,0.1559 0.1262,0.3053 0.1985,0.4473l-0.0009,0c0.0698,0.1375 0.1466,0.2693 0.231,0.3943l0.0015,0l0.0022,0.004l-0.0011,0.0006c0.4334,0.6457 1.0219,1.1707 1.7688,1.5695c0.1386,0.0743 0.2923,0.1477 0.4604,0.22l0,0.0014c0.0887,0.0383 0.1845,0.0782 0.2871,0.1165l4.919,-4.7344c-0.2546,-0.1602 -0.4797,-0.3334 -0.6781,-0.5188c-0.3192,-0.2976 -0.5686,-0.6253 -0.754,-0.9825l-0.0028,-0.0082c-0.1205,-0.2452 -0.2191,-0.538 -0.2974,-0.8773c-0.0388,-0.1689 -0.0728,-0.3461 -0.1003,-0.5315c-0.0836,-0.5542 -0.1265,-1.2217 -0.127,-2.003l-0.0012,0l0,-0.0119l0.0012,0l0,-61.6694zm-20.0727,11.1084l-6.3805,3.8758l0,55.9233c3.0761,0 6.0888,0.1769 8.9008,-1.3626c1.6625,-0.9096 3.0963,-2.2802 4.3001,-4.1108l0,-0.0014c1.0191,-1.5418 1.8264,-3.4353 2.4197,-5.675c0.1154,-0.4351 0.2231,-0.8866 0.3237,-1.3538c0.6168,-2.8655 0.9241,-6.2297 0.9244,-10.0862l-0.0017,0l0,-0.0085l0,-9.2855c0,-2.647 -0.2407,-5.3169 -0.8867,-7.8894c-0.2999,-1.1931 -0.7007,-2.512 -1.2489,-3.6147c-0.4678,-0.9417 -1.0888,-1.7867 -1.9639,-2.3893c-0.8254,-0.5686 -1.7586,-0.915 -2.7845,-0.9153l0,0.0017l-0.0036,0c-0.7498,0 -1.4055,0.1494 -1.9653,0.447c-0.635,0.3376 -1.1103,0.7645 -1.6336,1.2438l0,-14.7991zm0,20.1206c0.227,-0.161 0.4504,-0.3152 0.7152,-0.4096l0,-0.0008c0.553,-0.1968 1.2067,-0.1197 1.7027,0.1939c0.3113,0.1958 0.5687,0.4852 0.7722,0.8676l0.0003,0c0.2619,0.4768 0.4677,1.2119 0.6151,2.2011c0.2659,1.7964 0.2991,3.6372 0.2993,5.4491l0.0017,0l0,0.0173l0,15.1993l-0.0017,0c0,1.3978 -0.0881,2.6074 -0.2647,3.629c-0.1814,1.0465 -0.4572,1.9068 -0.8289,2.5818l-0.0003,0c-0.3994,0.7395 -0.9464,1.3158 -1.6381,1.7226c-0.4382,0.2576 -0.896,0.4033 -1.3728,0.5621l0,-32.0134zm-16.115,35.718l0.3016,0.6735c0.7444,1.6639 1.5344,3.0855 3.3324,3.7052l3.771,-5.5273c-0.5624,-0.5684 -0.9666,-1.2801 -1.2269,-2.0322l-0.0005,0l-0.0012,-0.0034l0,-0.0003c-0.1695,-0.4697 -0.2942,-1.1026 -0.3756,-1.8969c-0.0802,-0.7838 -0.1193,-1.7229 -0.1193,-2.8142l0,-34.8347c-2.8298,0 -5.6168,-0.1406 -8.265,1.0862c-1.5624,0.7248 -2.9253,1.8125 -4.0875,3.2655l0.0005,0.0006c-1.2764,1.6004 -2.287,3.5025 -3.0316,5.7027l0,-0.0003c-0.1457,0.4306 -0.2809,0.8711 -0.4054,1.3224c-0.7701,2.7862 -1.1559,6.0021 -1.1562,9.6438l0.0017,0l0,0.0062l0,5.6455c0,4.5133 0.2129,8.2638 0.6389,11.2487c0.4227,2.9577 1.0517,5.1576 1.8893,6.5965l0,0.002c0.5196,0.9 1.101,1.5707 1.7459,2.0126c0.6275,0.4306 1.3195,0.6452 2.0775,0.6452c1.0859,0 2.1671,-0.6429 3.242,-1.9319c0.6508,-0.7803 1.1602,-1.6438 1.6684,-2.5154zm-1.2311,-34.4268l0.5559,-0.2962l0,32.2557l-0.083,0.2361c-0.1664,0.2081 -0.3714,0.3677 -0.6149,0.4734c-0.2358,0.1026 -0.5037,0.1559 -0.8039,0.1559l0,-0.0017c-2.0483,0 -2.3267,-4.2936 -2.4219,-5.1967c-0.1877,-1.7751 -0.2812,-4.0363 -0.2812,-6.7791l-0.0014,0l0,-8.6091c0,-3.1782 0.1471,-5.599 0.4413,-7.2618c0.0564,-0.3217 0.1214,-0.623 0.1936,-0.9017c0.0706,-0.2752 0.1486,-0.5221 0.2319,-0.7396l0,-0.0017l0.0023,-0.0048l-0.0011,-0.0005c0.5388,-1.4094 1.4329,-2.609 2.7824,-3.3282zm-14.4995,-15.3796l-1.4743,0c-2.5732,3.8931 -5.2268,7.9696 -8.5079,11.3326l0,1.5999l3.6273,0l0,33.6143c0,2.8786 0.9368,5.9709 3.8032,7.2082c2.0064,0.8652 4.1587,0.5746 5.9624,-0.602l0,-5.205c-0.773,0.3676 -1.6248,0.4286 -2.3576,-0.093c-0.0655,-0.047 -0.1335,-0.1012 -0.2007,-0.1621l-0.0014,0c-0.0635,-0.0564 -0.1259,-0.1185 -0.1874,-0.1857l0.0009,-0.0003l-0.0014,-0.0025l-0.006,-0.0054c-0.2191,-0.2495 -0.3852,-0.5429 -0.4955,-0.8825l0,-0.0017c-0.1068,-0.3299 -0.1616,-0.7007 -0.1616,-1.1151l0,-32.5672l3.4107,0l0,-5.3714l-3.4107,0l0,-7.5611zm-21.158,47.7453c-0.2982,-0.1366 -0.5874,-0.3098 -0.8672,-0.5196l0.2041,5.9057c2.3191,1.2033 5.1197,1.5582 7.5016,0.5117c3.2633,-1.4338 4.2044,-4.9848 4.3243,-8.2729c0.21,-5.7059 -2.1521,-11.7871 -4.0541,-16.9614l-0.0023,-0.0071l-0.0008,0.0008c-0.8362,-2.2495 -1.6322,-4.5226 -2.2669,-6.8315c-0.6848,-2.4908 -1.487,-6.3096 -0.1553,-8.6754c0.9966,-1.7699 3.026,-2.3185 4.4625,-1.6897l4.1341,-5.0324c-3.1306,-1.1914 -6.5089,-1.6455 -9.5049,-0.2715c-2.8383,1.3031 -4.6411,3.78 -5.2676,6.6271c-0.7883,3.5858 -0.201,7.3848 0.7217,10.9409c0.6492,2.5027 1.5962,5.4144 2.8381,8.7378l0.0003,0c1.0482,2.7745 1.8456,5.1392 2.3918,7.0973c0.5494,1.9662 0.8425,3.5193 0.8822,4.6619c0.0578,1.6716 -0.5417,3.229 -2.1133,3.8809c-1.0014,0.4142 -2.2249,0.3597 -3.2283,-0.1026"/>
   </clipPath>
   <clipPath transform="translate(-1 0)" id="cp3">
    <path id="svg_74" fill-rule="evenodd" d="m357.1408,346.30467l7.4375,1.6432c-0.0272,2.2695 -0.9411,3.8863 -1.9766,4.8643l-5.4609,-6.5075zm-37.9319,43.2714c-1.5922,-1.7929 -2.3791,-4.7437 -2.7136,-7.0307c-0.17,-1.1588 -0.2276,-2.3244 -0.2457,-3.4935l0.2698,-0.0841c2.9336,-0.9151 5.4927,-2.6677 7.2182,-5.2005l0.0025,-0.0031c2.7099,-3.9487 3.1607,-10.3504 2.0415,-15.0948c-0.3557,-1.5074 -0.8886,-2.8856 -1.5979,-4.136l0.0003,0c-0.7004,-1.2186 -1.5653,-2.1297 -2.5959,-2.7343c-1.0276,-0.6035 -2.2323,-0.9048 -3.6148,-0.9048c-1.8938,0 -3.5504,0.8234 -4.761,2.2453c-0.2078,0.2438 -0.4102,0.5111 -0.6052,0.8016l0.0002,0l-0.0019,0.0023l-0.0032,0.0017c-1.0442,1.5418 -1.8297,3.5819 -2.3556,6.1206c-0.5306,2.5597 -0.7962,5.6256 -0.7962,9.199c0,6.7082 -0.3912,13.8809 2.0531,20.2385c1.7657,4.6012 5.8383,8.5686 10.9636,8.5686l0,-0.0015l0.0023,0c13.8716,0 17.2326,-20.1551 16.175,-30.7224c-0.4323,-4.3237 0.0502,-7.8378 1.9613,-11.7394c0.0624,0.4099 0.1457,0.8096 0.2494,1.2004c0.6755,2.5439 2.1538,4.5508 4.0559,6.4636l0,0.0108l0.0014,0.0008l0.0051,-0.0051c1.0006,1.006 2.1194,1.9826 3.3001,3.0121c1.9102,1.6668 6.3623,5.6577 4.1017,8.9422l-1.726,2.5078c5.2849,2.6504 10.506,4.8711 15.7918,7.5215l4.9326,-4.2305c3.1198,-2.6762 3.1218,-2.9259 2.8227,-6.1781c-0.2336,-2.5772 -0.3603,-5.1678 -0.5176,-7.7508c-0.3586,-5.9045 -0.6344,-10.428 -1.4423,-14.2038c1.9228,-3.2635 1.7689,-4.619 1.3428,-8.3398c-0.3566,-3.1249 -0.6882,-6.2541 -1.029,-9.3807c4.2407,-2.107 6.2414,-6.3848 8.3812,-10.3637c-4.7877,0.3132 -11.0832,-1.4126 -15.0434,-0.307l3.5104,-5.921l-0.0043,-0.0017l-0.0212,-0.0103c-18.1885,-7.1109 -38.211,-6.1078 -54.4901,3.0742c-1.4179,0.7997 -2.9464,1.7334 -4.1888,2.6938l0,28.6211c1.1979,-1.8864 2.933,-3.6045 5.3172,-4.1207l0,-21.7304c13.777,-8.3815 30.8033,-10.1818 46.7312,-5.2415c-2.0342,2.3088 -3.333,6.5474 -3.9629,11.3768c5.423,-5.6625 8.1352,-4.6049 14.3107,-4.3883c-0.951,1.3283 -4.5751,3.0061 -6.1914,3.4407c0.47,4.3101 1.3416,8.5583 1.8351,12.8613c0.3014,2.6326 0.3932,3.4373 -1.1432,5.8522l-0.612,0.962l0.2798,1.1047c0.898,3.5478 0.7469,8.1445 1.1234,14.3331c0.1309,2.1478 0.2721,4.4736 0.4297,6.6901l0.0006,0c0.0159,0.225 0.0655,0.7619 0.1077,1.2279c0.1712,1.8664 -1.9196,2.9495 -3.1969,4.0451l-7.9574,-3.9909c0.2588,-1.6702 0.1462,-3.6516 -0.3827,-5.5843c-1.0497,-3.8375 -2.9466,-4.79 -6.0506,-7.499c-6.1387,-5.355 -7.5104,-9.989 -2.1761,-16.8387l0.0108,0c0.1216,-0.1567 0.2148,-0.2704 0.2809,-0.3435c0.0428,-0.0477 0.0289,-0.0414 0.0425,-0.0531l0.0105,-0.0102l0.0014,-0.0011l-2.7417,-4.4657c-9.4101,5.7966 -14.2608,18.0485 -13.3361,27.2761c0.6845,6.8496 -0.5242,22.8835 -9.3569,23.6837c-0.2313,0.021 -0.4677,0.0318 -0.7092,0.0321l0,0.0017l-0.0029,0c-1.6271,0 -3.0447,-0.8292 -4.0907,-2.0084zm-1.5341,-18.394c-0.5014,0.4071 -1.0785,0.7183 -1.7535,1.0072l0,-6.6666l-0.0011,0c0,-1.6945 0.4629,-8.2233 2.2609,-7.9534c0.7688,0.1151 1.3632,1.3725 1.635,2.7513c0.4947,2.5073 0.4745,5.7447 -0.3679,8.1919c-0.3504,1.0224 -0.9218,1.9777 -1.7734,2.6696zm-11.5823,-44.5045l-6.3817,3.9909l0,61.4594l-0.0014,0c0,1.2577 0.1568,2.3054 0.474,3.1331l0.0017,0c0.0598,0.1559 0.1267,0.3053 0.199,0.4473l-0.0017,0c0.07,0.1375 0.1476,0.2693 0.2313,0.3943l0.0014,0l0.0025,0.004l-0.0011,0.0006c0.4337,0.6457 1.0216,1.1707 1.7683,1.5695c0.1391,0.0743 0.2928,0.1477 0.4603,0.22l0,0.0014c0.089,0.0383 0.1845,0.0782 0.288,0.1165l4.9181,-4.7344c-0.2537,-0.1602 -0.4793,-0.3334 -0.6778,-0.5188c-0.3186,-0.2976 -0.5686,-0.6253 -0.7543,-0.9825l-0.0031,-0.0082c-0.1202,-0.2452 -0.2191,-0.538 -0.2973,-0.8773c-0.038,-0.1689 -0.0717,-0.3461 -0.0998,-0.5315c-0.0831,-0.5542 -0.1261,-1.2217 -0.1264,-2.003l-0.0017,0l0,-0.0119l0.0017,0l0,-61.6694zm-20.073,11.1084l-6.3805,3.8758l0,55.9233c3.0761,0 6.0888,0.1769 8.9005,-1.3626c1.6628,-0.9096 3.0966,-2.2802 4.3004,-4.1108l0,-0.0014c1.0191,-1.5418 1.8258,-3.4353 2.4197,-5.675c0.1154,-0.4351 0.2231,-0.8866 0.3234,-1.3538c0.6166,-2.8655 0.9247,-6.2297 0.9247,-10.0862l-0.002,0l0,-0.0085l0,-9.2855c0,-2.647 -0.2409,-5.3169 -0.8867,-7.8894c-0.2996,-1.1931 -0.7007,-2.512 -1.2484,-3.6147c-0.468,-0.9417 -1.089,-1.7867 -1.9644,-2.3893c-0.8254,-0.5686 -1.7586,-0.915 -2.785,-0.9153l0,0.0017l-0.0034,0c-0.7495,0 -1.4054,0.1494 -1.9653,0.447c-0.6352,0.3376 -1.1106,0.7645 -1.633,1.2438l0,-14.7991zm0,20.1206c0.2265,-0.161 0.4499,-0.3152 0.7152,-0.4096l-0.0003,-0.0008c0.5536,-0.1968 1.2067,-0.1197 1.7028,0.1939c0.3112,0.1958 0.5686,0.4852 0.7721,0.8676l0.0003,0c0.2619,0.4768 0.4674,1.2119 0.6151,2.2011c0.2659,1.7964 0.2988,3.6372 0.2994,5.4491l0.0011,0l0,0.0173l0,15.1993l-0.0011,0c0,1.3978 -0.0876,2.6074 -0.2648,3.629c-0.1814,1.0465 -0.4572,1.9068 -0.8286,2.5818l-0.0002,0c-0.3997,0.7395 -0.9465,1.3158 -1.6388,1.7226c-0.4382,0.2576 -0.896,0.4033 -1.3722,0.5621l0,-32.0134zm-16.1158,35.718l0.3022,0.6735c0.7449,1.6639 1.5346,3.0855 3.3324,3.7052l3.7712,-5.5273c-0.5624,-0.5684 -0.9661,-1.2801 -1.2271,-2.0322l-0.0009,0l-0.0008,-0.0034l0.0005,-0.0003c-0.1692,-0.4697 -0.2948,-1.1026 -0.3761,-1.8969c-0.0802,-0.7838 -0.1194,-1.7229 -0.1194,-2.8142l0,-34.8347c-2.8301,0 -5.6165,-0.1406 -8.2652,1.0862c-1.5622,0.7248 -2.9251,1.8125 -4.0879,3.2655l0.0012,0.0006c-1.2762,1.6004 -2.2873,3.5025 -3.0311,5.7027l-0.0006,-0.0003c-0.1454,0.4306 -0.2809,0.8711 -0.4053,1.3224c-0.7697,2.7862 -1.1554,6.0021 -1.156,9.6438l0.0014,0l0,0.0062l0,5.6455c0,4.5133 0.2129,8.2638 0.6392,11.2487c0.4218,2.9577 1.052,5.1576 1.889,6.5965l0,0.002c0.5196,0.9 1.1019,1.5707 1.7459,2.0126c0.6273,0.4306 1.3198,0.6452 2.0775,0.6452c1.0859,0 2.1674,-0.6429 3.2425,-1.9319c0.65,-0.7803 1.16,-1.6438 1.6674,-2.5154zm-1.2311,-34.4268l0.5567,-0.2962l0,32.2557l-0.0833,0.2361c-0.1667,0.2081 -0.3711,0.3677 -0.6146,0.4734c-0.2358,0.1026 -0.504,0.1559 -0.8039,0.1559l0,-0.0017c-2.0491,0 -2.3272,-4.2936 -2.4225,-5.1967c-0.1876,-1.7751 -0.2812,-4.0363 -0.2812,-6.7791l-0.0008,0l0,-8.6091c0,-3.1782 0.1468,-5.599 0.4411,-7.2618c0.0567,-0.3217 0.1216,-0.623 0.193,-0.9017l0.0009,0c0.0705,-0.2752 0.1482,-0.5221 0.2315,-0.7396l0,-0.0017l0.002,-0.0048l-0.0008,-0.0005c0.5394,-1.4094 1.4332,-2.609 2.7819,-3.3282zm-14.4984,-15.3796l-1.4743,0c-2.5738,3.8931 -5.2279,7.9696 -8.5084,11.3326l0,1.5999l3.6275,0l0,33.6143c0,2.8786 0.9368,5.9709 3.8029,7.2082c2.0064,0.8652 4.159,0.5746 5.9621,-0.602l0,-5.205c-0.7724,0.3676 -1.6245,0.4286 -2.3567,-0.093c-0.0663,-0.047 -0.1335,-0.1012 -0.2013,-0.1621l-0.0017,0c-0.0626,-0.0564 -0.1258,-0.1185 -0.1865,-0.1857l0.0012,-0.0003l-0.0026,-0.0025l-0.0057,-0.0054c-0.2191,-0.2495 -0.3855,-0.5429 -0.4955,-0.8825l0,-0.0017c-0.1065,-0.3299 -0.161,-0.7007 -0.161,-1.1151l0,-32.5672l3.4098,0l0,-5.3714l-3.4098,0l0,-7.5611zm-21.1583,47.7453c-0.2982,-0.1366 -0.5874,-0.3098 -0.8671,-0.5196l0.2035,5.9057c2.3193,1.2033 5.1196,1.5582 7.5022,0.5117c3.2632,-1.4338 4.204,-4.9848 4.3242,-8.2729c0.2092,-5.7059 -2.1526,-11.7871 -4.0544,-16.9614l-0.0025,-0.0071l-0.0003,0.0008c-0.8357,-2.2495 -1.6328,-4.5226 -2.2672,-6.8315c-0.6851,-2.4908 -1.487,-6.3096 -0.155,-8.6754c0.9966,-1.7699 3.0257,-2.3185 4.462,-1.6897l4.1343,-5.0324c-3.1306,-1.1914 -6.5095,-1.6455 -9.5043,-0.2715c-2.8389,1.3031 -4.642,3.78 -5.2679,6.6271c-0.7886,3.5858 -0.2009,7.3848 0.7212,10.9409c0.6497,2.5027 1.5964,5.4144 2.838,8.7378l0.0009,0c1.0479,2.7745 1.845,5.1392 2.3913,7.0973c0.5493,1.9662 0.8427,3.5193 0.8824,4.6619c0.0584,1.6716 -0.5417,3.229 -2.1132,3.8809c-1.0012,0.4142 -2.2247,0.3597 -3.2281,-0.1026"/>
   </clipPath>
   <clipPath transform="translate(-1 0)" id="cp4">
    <path id="svg_124" fill-rule="evenodd" d="m603.5384,346.30467l7.4375,1.6432c-0.0266,2.2695 -0.9408,3.8863 -1.9763,4.8643l-5.4612,-6.5075zm-37.9316,43.2714c-1.5919,-1.7929 -2.3788,-4.7437 -2.7141,-7.0307c-0.1698,-1.1588 -0.2277,-2.3244 -0.2452,-3.4935l0.2695,-0.0841c2.9336,-0.9151 5.4927,-2.6677 7.2187,-5.2005l0.0023,-0.0031c2.7102,-3.9487 3.1609,-10.3504 2.0412,-15.0948c-0.3557,-1.5074 -0.8886,-2.8856 -1.5981,-4.136l0.0008,0c-0.7007,-1.2186 -1.5653,-2.1297 -2.5957,-2.7343c-1.0281,-0.6035 -2.2322,-0.9048 -3.615,-0.9048c-1.8938,0 -3.5507,0.8234 -4.7608,2.2453c-0.208,0.2438 -0.4101,0.5111 -0.6057,0.8016l0.0002,0l-0.0017,0.0023l-0.0028,0.0017c-1.0443,1.5418 -1.83,3.5819 -2.3561,6.1206c-0.5307,2.5597 -0.796,5.6256 -0.796,9.199c0,6.7082 -0.3912,13.8809 2.0526,20.2385c1.7662,4.6012 5.839,8.5686 10.9635,8.5686l0,-0.0015l0.0028,0c13.8714,0 17.233,-20.1551 16.1748,-30.7224c-0.4326,-4.3237 0.0502,-7.8378 1.9616,-11.7394c0.0618,0.4099 0.146,0.8096 0.2494,1.2004c0.6758,2.5439 2.1535,4.5508 4.0559,6.4636l0,0.0108l0.0014,0.0008l0.0048,-0.0051c1.0009,1.006 2.12,1.9826 3.3004,3.0121c1.9102,1.6668 6.3629,5.6577 4.102,8.9422l-1.7266,2.5078c5.2855,2.6504 10.5063,4.8711 15.7921,7.5215l4.9328,-4.2305c3.1193,-2.6762 3.121,-2.9259 2.8225,-6.1781c-0.2339,-2.5772 -0.3606,-5.1678 -0.517,-7.7508c-0.3598,-5.9045 -0.635,-10.428 -1.4429,-14.2038c1.9228,-3.2635 1.7686,-4.619 1.3431,-8.3398c-0.3575,-3.1249 -0.6883,-6.2541 -1.029,-9.3807c4.2406,-2.107 6.2402,-6.3848 8.3809,-10.3637c-4.7874,0.3132 -11.0832,-1.4126 -15.044,-0.307l3.5104,-5.921l-0.004,-0.0017l-0.0212,-0.0103c-18.1882,-7.1109 -38.2113,-6.1078 -54.4901,3.0742c-1.4179,0.7997 -2.9458,1.7334 -4.1888,2.6938l0,28.6211c1.1979,-1.8864 2.9333,-3.6045 5.317,-4.1207l0,-21.7304c13.7775,-8.3815 30.8043,-10.1818 46.7316,-5.2415c-2.0338,2.3088 -3.3329,6.5474 -3.9625,11.3768c5.4224,-5.6625 8.1343,-4.6049 14.3104,-4.3883c-0.9507,1.3283 -4.5751,3.0061 -6.1914,3.4407c0.47,4.3101 1.3416,8.5583 1.8349,12.8613c0.301,2.6326 0.394,3.4373 -1.143,5.8522l-0.612,0.962l0.2798,1.1047c0.898,3.5478 0.7469,8.1445 1.1234,14.3331c0.1304,2.1478 0.2724,4.4736 0.4294,6.6901l0.0006,0c0.0159,0.225 0.0655,0.7619 0.1083,1.2279c0.1709,1.8664 -1.9196,2.9495 -3.1972,4.0451l-7.958,-3.9909c0.2594,-1.6702 0.1468,-3.6516 -0.3821,-5.5843c-1.0497,-3.8375 -2.9466,-4.79 -6.0506,-7.499c-6.1387,-5.355 -7.5106,-9.989 -2.1761,-16.8387l0.0105,0c0.1219,-0.1567 0.2157,-0.2704 0.2814,-0.3435c0.0426,-0.0477 0.0284,-0.0414 0.042,-0.0531l0.0105,-0.0102l0.0014,-0.0011l-2.7411,-4.4657c-9.4102,5.7966 -14.2605,18.0485 -13.3367,27.2761c0.6848,6.8496 -0.5233,22.8835 -9.3572,23.6837c-0.2307,0.021 -0.4674,0.0318 -0.7089,0.0321l0,0.0017l-0.0029,0c-1.6265,0 -3.0441,-0.8292 -4.0904,-2.0084zm-1.5341,-18.394c-0.5011,0.4071 -1.0788,0.7183 -1.7535,1.0072l0,-6.6666l-0.0014,0c0,-1.6945 0.4635,-8.2233 2.2606,-7.9534c0.7693,0.1151 1.3635,1.3725 1.6353,2.7513c0.4952,2.5073 0.4751,5.7447 -0.3673,8.1919c-0.3513,1.0224 -0.9221,1.9777 -1.7737,2.6696zm-11.5829,-44.5045l-6.3814,3.9909l0,61.4594l-0.0017,0c0,1.2577 0.1571,2.3054 0.4748,3.1331l0.0015,0c0.0598,0.1559 0.1261,0.3053 0.1984,0.4473l-0.0009,0c0.0698,0.1375 0.1466,0.2693 0.2311,0.3943l0.0014,0l0.0022,0.004l-0.0011,0.0006c0.4334,0.6457 1.0219,1.1707 1.7688,1.5695c0.1386,0.0743 0.2923,0.1477 0.4604,0.22l0,0.0014c0.0887,0.0383 0.1845,0.0782 0.2871,0.1165l4.919,-4.7344c-0.2546,-0.1602 -0.4796,-0.3334 -0.6781,-0.5188c-0.3191,-0.2976 -0.5686,-0.6253 -0.754,-0.9825l-0.0028,-0.0082c-0.1205,-0.2452 -0.2191,-0.538 -0.2974,-0.8773c-0.0388,-0.1689 -0.0728,-0.3461 -0.1003,-0.5315c-0.0836,-0.5542 -0.1264,-1.2217 -0.127,-2.003l-0.0011,0l0,-0.0119l0.0011,0l0,-61.6694zm-20.0727,11.1084l-6.3805,3.8758l0,55.9233c3.0762,0 6.0888,0.1769 8.9008,-1.3626c1.6625,-0.9096 3.0963,-2.2802 4.3001,-4.1108l0,-0.0014c1.0191,-1.5418 1.8264,-3.4353 2.4197,-5.675c0.1154,-0.4351 0.2231,-0.8866 0.3237,-1.3538c0.6168,-2.8655 0.9241,-6.2297 0.9244,-10.0862l-0.0017,0l0,-0.0085l0,-9.2855c0,-2.647 -0.2407,-5.3169 -0.8867,-7.8894c-0.2999,-1.1931 -0.7007,-2.512 -1.2489,-3.6147c-0.4677,-0.9417 -1.0888,-1.7867 -1.9639,-2.3893c-0.8254,-0.5686 -1.7586,-0.915 -2.7844,-0.9153l0,0.0017l-0.0037,0c-0.7498,0 -1.4054,0.1494 -1.9653,0.447c-0.635,0.3376 -1.1103,0.7645 -1.6336,1.2438l0,-14.7991zm0,20.1206c0.2271,-0.161 0.4504,-0.3152 0.7152,-0.4096l0,-0.0008c0.553,-0.1968 1.2067,-0.1197 1.7028,0.1939c0.3112,0.1958 0.5686,0.4852 0.7721,0.8676l0.0003,0c0.2619,0.4768 0.4677,1.2119 0.6151,2.2011c0.2659,1.7964 0.2991,3.6372 0.2994,5.4491l0.0017,0l0,0.0173l0,15.1993l-0.0017,0c0,1.3978 -0.0882,2.6074 -0.2648,3.629c-0.1814,1.0465 -0.4572,1.9068 -0.8289,2.5818l-0.0002,0c-0.3994,0.7395 -0.9465,1.3158 -1.6382,1.7226c-0.4382,0.2576 -0.896,0.4033 -1.3728,0.5621l0,-32.0134zm-16.115,35.718l0.3016,0.6735c0.7444,1.6639 1.5344,3.0855 3.3325,3.7052l3.7709,-5.5273c-0.5624,-0.5684 -0.9666,-1.2801 -1.2268,-2.0322l-0.0006,0l-0.0011,-0.0034l0,-0.0003c-0.1696,-0.4697 -0.2943,-1.1026 -0.3756,-1.8969c-0.0803,-0.7838 -0.1194,-1.7229 -0.1194,-2.8142l0,-34.8347c-2.8298,0 -5.6168,-0.1406 -8.265,1.0862c-1.5624,0.7248 -2.9253,1.8125 -4.0875,3.2655l0.0006,0.0006c-1.2765,1.6004 -2.287,3.5025 -3.0317,5.7027l0,-0.0003c-0.1457,0.4306 -0.2809,0.8711 -0.4054,1.3224c-0.7701,2.7862 -1.1559,6.0021 -1.1562,9.6438l0.0017,0l0,0.0062l0,5.6455c0,4.5133 0.2129,8.2638 0.6389,11.2487c0.4227,2.9577 1.0517,5.1576 1.8893,6.5965l0,0.002c0.5196,0.9 1.101,1.5707 1.7459,2.0126c0.6276,0.4306 1.3195,0.6452 2.0775,0.6452c1.0859,0 2.1671,-0.6429 3.242,-1.9319c0.6508,-0.7803 1.1602,-1.6438 1.6684,-2.5154zm-1.231,-34.4268l0.5558,-0.2962l0,32.2557l-0.083,0.2361c-0.1664,0.2081 -0.3714,0.3677 -0.6149,0.4734c-0.2358,0.1026 -0.5037,0.1559 -0.8039,0.1559l0,-0.0017c-2.0483,0 -2.3266,-4.2936 -2.4219,-5.1967c-0.1876,-1.7751 -0.2812,-4.0363 -0.2812,-6.7791l-0.0014,0l0,-8.6091c0,-3.1782 0.1471,-5.599 0.4414,-7.2618c0.0564,-0.3217 0.1213,-0.623 0.1936,-0.9017c0.0705,-0.2752 0.1485,-0.5221 0.2318,-0.7396l0,-0.0017l0.0023,-0.0048l-0.0011,-0.0005c0.5388,-1.4094 1.4329,-2.609 2.7825,-3.3282zm-14.4995,-15.3796l-1.4743,0c-2.5733,3.8931 -5.2268,7.9696 -8.5079,11.3326l0,1.5999l3.6272,0l0,33.6143c0,2.8786 0.9368,5.9709 3.8032,7.2082c2.0064,0.8652 4.1587,0.5746 5.9624,-0.602l0,-5.205c-0.773,0.3676 -1.6248,0.4286 -2.3576,-0.093c-0.0655,-0.047 -0.1335,-0.1012 -0.2007,-0.1621l-0.0014,0c-0.0635,-0.0564 -0.1258,-0.1185 -0.1874,-0.1857l0.0009,-0.0003l-0.0014,-0.0025l-0.006,-0.0054c-0.2191,-0.2495 -0.3852,-0.5429 -0.4955,-0.8825l0,-0.0017c-0.1068,-0.3299 -0.1615,-0.7007 -0.1615,-1.1151l0,-32.5672l3.4106,0l0,-5.3714l-3.4106,0l0,-7.5611zm-21.1581,47.7453c-0.2982,-0.1366 -0.5874,-0.3098 -0.8671,-0.5196l0.2041,5.9057c2.319,1.2033 5.1196,1.5582 7.5016,0.5117c3.2632,-1.4338 4.2043,-4.9848 4.3242,-8.2729c0.2101,-5.7059 -2.152,-11.7871 -4.0541,-16.9614l-0.0023,-0.0071l-0.0008,0.0008c-0.8362,-2.2495 -1.6322,-4.5226 -2.2669,-6.8315c-0.6848,-2.4908 -1.487,-6.3096 -0.1553,-8.6754c0.9966,-1.7699 3.026,-2.3185 4.4626,-1.6897l4.134,-5.0324c-3.1306,-1.1914 -6.5089,-1.6455 -9.5048,-0.2715c-2.8384,1.3031 -4.6412,3.78 -5.2677,6.6271c-0.7883,3.5858 -0.2009,7.3848 0.7217,10.9409c0.6492,2.5027 1.5962,5.4144 2.8381,8.7378l0.0003,0c1.0482,2.7745 1.8456,5.1392 2.3918,7.0973c0.5494,1.9662 0.8425,3.5193 0.8822,4.6619c0.0578,1.6716 -0.5417,3.229 -2.1132,3.8809c-1.0015,0.4142 -2.225,0.3597 -3.2284,-0.1026"/>
   </clipPath>
   <clipPath transform="translate(-1 0)" id="cp5">
    <path id="svg_142" fill-rule="evenodd" d="m778.0851,346.30467l7.4375,1.6432c-0.0272,2.2695 -0.9411,3.8863 -1.9766,4.8643l-5.4609,-6.5075zm-37.9318,43.2714c-1.5923,-1.7929 -2.3792,-4.7437 -2.7136,-7.0307c-0.1701,-1.1588 -0.2277,-2.3244 -0.2458,-3.4935l0.2698,-0.0841c2.9336,-0.9151 5.4927,-2.6677 7.2182,-5.2005l0.0025,-0.0031c2.71,-3.9487 3.1607,-10.3504 2.0416,-15.0948c-0.3558,-1.5074 -0.8887,-2.8856 -1.5979,-4.136l0.0002,0c-0.7004,-1.2186 -1.5652,-2.1297 -2.5959,-2.7343c-1.0276,-0.6035 -2.2323,-0.9048 -3.6148,-0.9048c-1.8938,0 -3.5504,0.8234 -4.761,2.2453c-0.2078,0.2438 -0.4102,0.5111 -0.6052,0.8016l0.0003,0l-0.002,0.0023l-0.0031,0.0017c-1.0443,1.5418 -1.8298,3.5819 -2.3556,6.1206c-0.5307,2.5597 -0.7963,5.6256 -0.7963,9.199c0,6.7082 -0.3912,13.8809 2.0531,20.2385c1.7657,4.6012 5.8383,8.5686 10.9636,8.5686l0,-0.0015l0.0023,0c13.8716,0 17.2326,-20.1551 16.175,-30.7224c-0.4323,-4.3237 0.0502,-7.8378 1.9613,-11.7394c0.0624,0.4099 0.1457,0.8096 0.2495,1.2004c0.6755,2.5439 2.1537,4.5508 4.0558,6.4636l0,0.0108l0.0014,0.0008l0.0051,-0.0051c1.0006,1.006 2.1195,1.9826 3.3001,3.0121c1.9103,1.6668 6.3624,5.6577 4.1017,8.9422l-1.726,2.5078c5.2849,2.6504 10.5061,4.8711 15.7918,7.5215l4.9326,-4.2305c3.1198,-2.6762 3.1218,-2.9259 2.8227,-6.1781c-0.2336,-2.5772 -0.3603,-5.1678 -0.5176,-7.7508c-0.3586,-5.9045 -0.6344,-10.428 -1.4422,-14.2038c1.9227,-3.2635 1.7688,-4.619 1.3427,-8.3398c-0.3566,-3.1249 -0.6882,-6.2541 -1.029,-9.3807c4.2407,-2.107 6.2414,-6.3848 8.3812,-10.3637c-4.7877,0.3132 -11.0831,-1.4126 -15.0434,-0.307l3.5104,-5.921l-0.0042,-0.0017l-0.0213,-0.0103c-18.1885,-7.1109 -38.211,-6.1078 -54.4901,3.0742c-1.4179,0.7997 -2.9463,1.7334 -4.1888,2.6938l0,28.6211c1.1979,-1.8864 2.933,-3.6045 5.3173,-4.1207l0,-21.7304c13.7769,-8.3815 30.8032,-10.1818 46.7311,-5.2415c-2.0342,2.3088 -3.333,6.5474 -3.9629,11.3768c5.423,-5.6625 8.1352,-4.6049 14.3107,-4.3883c-0.951,1.3283 -4.5751,3.0061 -6.1914,3.4407c0.47,4.3101 1.3417,8.5583 1.8352,12.8613c0.3013,2.6326 0.3931,3.4373 -1.1433,5.8522l-0.612,0.962l0.2798,1.1047c0.898,3.5478 0.747,8.1445 1.1234,14.3331c0.131,2.1478 0.2721,4.4736 0.4297,6.6901l0.0006,0c0.0159,0.225 0.0655,0.7619 0.1077,1.2279c0.1712,1.8664 -1.9196,2.9495 -3.1969,4.0451l-7.9574,-3.9909c0.2588,-1.6702 0.1463,-3.6516 -0.3827,-5.5843c-1.0497,-3.8375 -2.9466,-4.79 -6.0505,-7.499c-6.1388,-5.355 -7.5104,-9.989 -2.1762,-16.8387l0.0108,0c0.1216,-0.1567 0.2148,-0.2704 0.2809,-0.3435c0.0428,-0.0477 0.0289,-0.0414 0.0425,-0.0531l0.0105,-0.0102l0.0014,-0.0011l-2.7417,-4.4657c-9.4101,5.7966 -14.2608,18.0485 -13.3361,27.2761c0.6845,6.8496 -0.5241,22.8835 -9.3569,23.6837c-0.2313,0.021 -0.4677,0.0318 -0.7092,0.0321l0,0.0017l-0.0029,0c-1.627,0 -3.0447,-0.8292 -4.0906,-2.0084zm-1.5342,-18.394c-0.5014,0.4071 -1.0785,0.7183 -1.7535,1.0072l0,-6.6666l-0.0011,0c0,-1.6945 0.4629,-8.2233 2.2609,-7.9534c0.7688,0.1151 1.3632,1.3725 1.635,2.7513c0.4947,2.5073 0.4746,5.7447 -0.3679,8.1919c-0.3504,1.0224 -0.9218,1.9777 -1.7734,2.6696zm-11.5823,-44.5045l-6.3817,3.9909l0,61.4594l-0.0014,0c0,1.2577 0.1568,2.3054 0.474,3.1331l0.0017,0c0.0598,0.1559 0.1267,0.3053 0.199,0.4473l-0.0017,0c0.07,0.1375 0.1477,0.2693 0.2313,0.3943l0.0014,0l0.0026,0.004l-0.0012,0.0006c0.4337,0.6457 1.0216,1.1707 1.7683,1.5695c0.1392,0.0743 0.2928,0.1477 0.4603,0.22l0,0.0014c0.089,0.0383 0.1846,0.0782 0.288,0.1165l4.9181,-4.7344c-0.2537,-0.1602 -0.4793,-0.3334 -0.6777,-0.5188c-0.3187,-0.2976 -0.5687,-0.6253 -0.7543,-0.9825l-0.0032,-0.0082c-0.1201,-0.2452 -0.2191,-0.538 -0.2973,-0.8773c-0.038,-0.1689 -0.0717,-0.3461 -0.0998,-0.5315c-0.083,-0.5542 -0.1261,-1.2217 -0.1264,-2.003l-0.0017,0l0,-0.0119l0.0017,0l0,-61.6694zm-20.073,11.1084l-6.3805,3.8758l0,55.9233c3.0762,0 6.0888,0.1769 8.9005,-1.3626c1.6628,-0.9096 3.0966,-2.2802 4.3005,-4.1108l0,-0.0014c1.019,-1.5418 1.8257,-3.4353 2.4196,-5.675c0.1154,-0.4351 0.2231,-0.8866 0.3234,-1.3538c0.6166,-2.8655 0.9247,-6.2297 0.9247,-10.0862l-0.002,0l0,-0.0085l0,-9.2855c0,-2.647 -0.2409,-5.3169 -0.8867,-7.8894c-0.2996,-1.1931 -0.7007,-2.512 -1.2483,-3.6147c-0.468,-0.9417 -1.0891,-1.7867 -1.9644,-2.3893c-0.8255,-0.5686 -1.7587,-0.915 -2.7851,-0.9153l0,0.0017l-0.0034,0c-0.7495,0 -1.4054,0.1494 -1.9652,0.447c-0.6353,0.3376 -1.1107,0.7645 -1.6331,1.2438l0,-14.7991zm0,20.1206c0.2265,-0.161 0.4499,-0.3152 0.7152,-0.4096l-0.0003,-0.0008c0.5536,-0.1968 1.2067,-0.1197 1.7028,0.1939c0.3112,0.1958 0.5686,0.4852 0.7721,0.8676l0.0003,0c0.2619,0.4768 0.4675,1.2119 0.6151,2.2011c0.2659,1.7964 0.2988,3.6372 0.2994,5.4491l0.0011,0l0,0.0173l0,15.1993l-0.0011,0c0,1.3978 -0.0876,2.6074 -0.2648,3.629c-0.1814,1.0465 -0.4572,1.9068 -0.8285,2.5818l-0.0003,0c-0.3997,0.7395 -0.9465,1.3158 -1.6387,1.7226c-0.4383,0.2576 -0.8961,0.4033 -1.3723,0.5621l0,-32.0134zm-16.1158,35.718l0.3022,0.6735c0.7449,1.6639 1.5347,3.0855 3.3324,3.7052l3.7712,-5.5273c-0.5624,-0.5684 -0.9661,-1.2801 -1.2271,-2.0322l-0.0009,0l-0.0008,-0.0034l0.0005,-0.0003c-0.1692,-0.4697 -0.2948,-1.1026 -0.3761,-1.8969c-0.0802,-0.7838 -0.1194,-1.7229 -0.1194,-2.8142l0,-34.8347c-2.8301,0 -5.6165,-0.1406 -8.2652,1.0862c-1.5622,0.7248 -2.9251,1.8125 -4.0879,3.2655l0.0012,0.0006c-1.2762,1.6004 -2.2873,3.5025 -3.0311,5.7027l-0.0006,-0.0003c-0.1454,0.4306 -0.2809,0.8711 -0.4053,1.3224c-0.7696,2.7862 -1.1554,6.0021 -1.156,9.6438l0.0014,0l0,0.0062l0,5.6455c0,4.5133 0.2129,8.2638 0.6392,11.2487c0.4218,2.9577 1.052,5.1576 1.889,6.5965l0,0.002c0.5196,0.9 1.1019,1.5707 1.7459,2.0126c0.6273,0.4306 1.3198,0.6452 2.0775,0.6452c1.086,0 2.1674,-0.6429 3.2426,-1.9319c0.6499,-0.7803 1.1599,-1.6438 1.6673,-2.5154zm-1.2311,-34.4268l0.5567,-0.2962l0,32.2557l-0.0833,0.2361c-0.1667,0.2081 -0.3711,0.3677 -0.6146,0.4734c-0.2358,0.1026 -0.504,0.1559 -0.8039,0.1559l0,-0.0017c-2.0491,0 -2.3272,-4.2936 -2.4224,-5.1967c-0.1877,-1.7751 -0.2812,-4.0363 -0.2812,-6.7791l-0.0009,0l0,-8.6091c0,-3.1782 0.1468,-5.599 0.4411,-7.2618c0.0567,-0.3217 0.1216,-0.623 0.193,-0.9017l0.0009,0c0.0706,-0.2752 0.1482,-0.5221 0.2316,-0.7396l0,-0.0017l0.0019,-0.0048l-0.0008,-0.0005c0.5394,-1.4094 1.4332,-2.609 2.7819,-3.3282zm-14.4983,-15.3796l-1.4743,0c-2.5739,3.8931 -5.228,7.9696 -8.5085,11.3326l0,1.5999l3.6275,0l0,33.6143c0,2.8786 0.9368,5.9709 3.8029,7.2082c2.0064,0.8652 4.159,0.5746 5.9621,-0.602l0,-5.205c-0.7724,0.3676 -1.6245,0.4286 -2.3567,-0.093c-0.0663,-0.047 -0.1335,-0.1012 -0.2012,-0.1621l-0.0017,0c-0.0627,-0.0564 -0.1259,-0.1185 -0.1866,-0.1857l0.0012,-0.0003l-0.0026,-0.0025l-0.0056,-0.0054c-0.2192,-0.2495 -0.3856,-0.5429 -0.4955,-0.8825l0,-0.0017c-0.1066,-0.3299 -0.161,-0.7007 -0.161,-1.1151l0,-32.5672l3.4097,0l0,-5.3714l-3.4097,0l0,-7.5611zm-21.1584,47.7453c-0.2982,-0.1366 -0.5873,-0.3098 -0.8671,-0.5196l0.2035,5.9057c2.3193,1.2033 5.1197,1.5582 7.5022,0.5117c3.2632,-1.4338 4.204,-4.9848 4.3242,-8.2729c0.2092,-5.7059 -2.1526,-11.7871 -4.0544,-16.9614l-0.0025,-0.0071l-0.0003,0.0008c-0.8357,-2.2495 -1.6328,-4.5226 -2.2672,-6.8315c-0.6851,-2.4908 -1.487,-6.3096 -0.155,-8.6754c0.9967,-1.7699 3.0257,-2.3185 4.462,-1.6897l4.1343,-5.0324c-3.1305,-1.1914 -6.5094,-1.6455 -9.5042,-0.2715c-2.8389,1.3031 -4.6421,3.78 -5.268,6.6271c-0.7886,3.5858 -0.2009,7.3848 0.7212,10.9409c0.6497,2.5027 1.5965,5.4144 2.838,8.7378l0.0009,0c1.0479,2.7745 1.8451,5.1392 2.3913,7.0973c0.5493,1.9662 0.8427,3.5193 0.8824,4.6619c0.0584,1.6716 -0.5417,3.229 -2.1132,3.8809c-1.0012,0.4142 -2.2246,0.3597 -3.2281,-0.1026"/>
   </clipPath>
  </g>
 </g>
</svg>