<?xml version="1.0" encoding="UTF-8"?>
<svg width="200" height="48" viewBox="0 0 200 48" xmlns="http://www.w3.org/2000/svg">
  <!-- Main Text -->
  <g font-family="serif" font-weight="bold">
    <text x="100" y="20" text-anchor="middle" font-size="18" fill="#1f2937">THE</text>
    <text x="100" y="38" text-anchor="middle" font-size="18" fill="#059669">STABLE</text>
  </g>
  
  <!-- Horse Head Icon (simplified) -->
  <g transform="translate(10, 8)">
    <path d="M12 4 C8 4, 6 8, 6 12 C6 16, 8 18, 10 20 L14 20 C16 18, 18 16, 18 12 C18 8, 16 4, 12 4 Z" 
          fill="#059669" stroke="#1f2937" stroke-width="1"/>
    <circle cx="10" cy="10" r="1" fill="#1f2937"/>
    <path d="M8 14 Q10 16, 12 14" stroke="#1f2937" stroke-width="1" fill="none"/>
  </g>
  
  <!-- Mountain Icons -->
  <g transform="translate(170, 12)">
    <path d="M0 20 L6 8 L12 20 Z" fill="#6b7280"/>
    <path d="M8 20 L14 10 L20 20 Z" fill="#4b5563"/>
  </g>
  
  <!-- Decorative Line -->
  <line x1="30" y1="24" x2="170" y2="24" stroke="#d1d5db" stroke-width="1"/>
</svg>